<svg version="1.0" xmlns="http://www.w3.org/2000/svg" preserveAspectRatio="xMidYMid meet" viewBox="128 81 58.53 87">

<g transform="translate(0.000000,250.000000) scale(0.100000,-0.100000)" fill="#000000" stroke="none">
<path d="M1280 1517 c0 -161 1 -175 20 -192 20 -18 20 -17 20 128 0 81 3 147 8 147 4 0 45 -38 91 -84 l84 -85 -36 -40 c-37 -41 -37 -41 -37 -133 l0 -92 -75 74 -75 74 0 -216 c0 -215 0 -217 24 -245 20 -23 32 -28 71 -28 39 0 51 5 71 28 21 25 24 38 24 106 0 65 -3 81 -20 96 -20 18 -20 17 -20 -67 0 -94 -11 -120 -53 -120 -53 -1 -57 11 -57 178 0 85 3 154 7 154 4 0 93 -85 198 -190 170 -169 195 -190 224 -190 65 0 110 42 111 104 0 37 -7 47 -130 171 -71 72 -130 138 -130 146 0 8 54 68 121 134 141 140 155 162 139 211 -15 44 -44 64 -94 64 -36 0 -47 -8 -135 -95 l-97 -95 -114 115 c-63 63 -120 115 -127 115 -10 0 -13 -40 -13 -173z m530 74 c5 -11 10 -28 10 -38 0 -10 -58 -76 -130 -148 -117 -116 -130 -133 -130 -164 0 -31 14 -49 130 -166 136 -138 147 -158 110 -195 -38 -38 -57 -27 -197 113 l-133 133 0 104 0 103 137 139 c110 111 142 138 165 138 17 0 31 -7 38 -19z"/>
</g>
</svg>